<svg width="152" height="54" viewBox="0 0 152 54" fill="none" xmlns="http://www.w3.org/2000/svg">
<g filter="url(#filter0_d_1_46)">
<path d="M4 15C4 12.2386 6.23858 10 9 10H63.203C64.3822 10 65.5233 9.58328 66.425 8.82345L72.4869 3.71515C74.3485 2.14641 77.0693 2.14642 78.9309 3.71515L84.9928 8.82345C85.8944 9.58328 87.0356 10 88.2147 10H142.418C145.179 10 147.418 12.2386 147.418 15V43C147.418 45.7614 145.179 48 142.418 48H8.99999C6.23857 48 4 45.7614 4 43V15Z" fill="#BEDEEB"/>
<path d="M146.918 15V43C146.918 45.4853 144.903 47.5 142.418 47.5H8.99999C6.51471 47.5 4.5 45.4853 4.5 43V15C4.5 12.5147 6.51472 10.5 9 10.5H63.203C64.5001 10.5 65.7554 10.0416 66.7472 9.20579L72.8091 4.09749C74.4845 2.68563 76.9333 2.68563 78.6087 4.0975L84.6706 9.20579C85.6624 10.0416 86.9177 10.5 88.2147 10.5H142.418C144.903 10.5 146.918 12.5147 146.918 15Z" stroke="#E4E4E4"/>
</g>
<defs>
<filter id="filter0_d_1_46" x="0" y="0.538605" width="151.418" height="53.4614" filterUnits="userSpaceOnUse" color-interpolation-filters="sRGB">
<feFlood flood-opacity="0" result="BackgroundImageFix"/>
<feColorMatrix in="SourceAlpha" type="matrix" values="0 0 0 0 0 0 0 0 0 0 0 0 0 0 0 0 0 0 127 0" result="hardAlpha"/>
<feOffset dy="2"/>
<feGaussianBlur stdDeviation="2"/>
<feColorMatrix type="matrix" values="0 0 0 0 0 0 0 0 0 0 0 0 0 0 0 0 0 0 0.17 0"/>
<feBlend mode="normal" in2="BackgroundImageFix" result="effect1_dropShadow_1_46"/>
<feBlend mode="normal" in="SourceGraphic" in2="effect1_dropShadow_1_46" result="shape"/>
</filter>
</defs>
</svg>
