<svg width="28" height="28" viewBox="0 0 28 28" fill="none" xmlns="http://www.w3.org/2000/svg">
<path d="M20.6971 19H24.4728V24H20.6971V19Z" fill="black"/>
<path d="M15.1455 14H18.9213V24H15.1455V14Z" fill="black"/>
<path d="M8 24C6.6744 23.9984 5.40356 23.4711 4.46622 22.5338C3.52888 21.5964 3.00159 20.3256 3 19H5C5 19.5933 5.17595 20.1734 5.50559 20.6667C5.83524 21.1601 6.30377 21.5446 6.85195 21.7716C7.40013 21.9987 8.00333 22.0581 8.58527 21.9424C9.16721 21.8266 9.70176 21.5409 10.1213 21.1213C10.5409 20.7018 10.8266 20.1672 10.9424 19.5853C11.0581 19.0033 10.9987 18.4001 10.7716 17.8519C10.5446 17.3038 10.1601 16.8352 9.66671 16.5056C9.17336 16.1759 8.59334 16 8 16V14C9.32608 14 10.5979 14.5268 11.5355 15.4645C12.4732 16.4021 13 17.6739 13 19C13 20.3261 12.4732 21.5979 11.5355 22.5355C10.5979 23.4732 9.32608 24 8 24Z" fill="black"/>
<path d="M26 0H2C1.46973 0.000529477 0.961329 0.211413 0.586371 0.586371C0.211413 0.961329 0.000529477 1.46973 0 2V26C0.000529477 26.5303 0.211413 27.0387 0.586371 27.4136C0.961329 27.7886 1.46973 27.9995 2 28H26C26.5302 27.9992 27.0384 27.7882 27.4133 27.4133C27.7882 27.0384 27.9992 26.5302 28 26V2C27.9995 1.46973 27.7886 0.961329 27.4136 0.586371C27.0387 0.211413 26.5303 0.000529477 26 0ZM26 9H12V2H26V9ZM10 2V9H2V2H10ZM2 26V11H26L26.002 26H2Z" fill="black"/>
</svg>
