<svg xmlns="http://www.w3.org/2000/svg" width="32" height="32"><path d="M16.512 2.984v.004a.493.507 0 0 0-.018 0 .493.507 0 0 0-.049 0 .493.507 0 0 0-.049.01.493.507 0 0 0-.048.016.493.507 0 0 0-.051.017L4.357 8.443A.493.507 0 0 0 4 8.93v14.849a.493.507 0 0 0 .285.461l12 5.713a.493.507 0 0 0 .168.045.493.507 0 0 0 .012.002.493.507 0 0 0 .012 0 .493.507 0 0 0 .232-.047l12.004-5.717a.493.507 0 0 0 .287-.46V8.917a.493.507 0 0 0-.408-.498h-.002L16.703 3.023a.493.507 0 0 0-.191-.039zm-.002 1.06 10.642 4.829-4.52 1.645a.493.507 0 0 0-.095-.057L12.451 5.885l4.059-1.84zm-5.28 2.394.057.025.05.023.058.026 9.896 4.492-4.805 1.748L5.838 8.881l5.392-2.444zm16.784 3.197V23.45l-11.02 5.246V13.643l11.02-4.008zm-23.028.011 11.012 4.006v15.045L4.986 23.455V9.647z" color="#000" font-family="sans-serif" font-weight="400" overflow="visible" style="line-height:normal;text-indent:0;text-align:start;text-decoration-line:none;text-decoration-style:solid;text-decoration-color:#000;text-transform:none;block-progression:tb;white-space:normal;isolation:auto;mix-blend-mode:normal;solid-color:#000;solid-opacity:1"/></svg>