<?xml version="1.0" encoding="UTF-8" standalone="no"?><svg width="29" height="28" viewBox="0 0 29 28" fill="none" xmlns="http://www.w3.org/2000/svg">
<path d="M22.2924 19H24.3041V24H22.2924V19Z" fill="black"/>
<path d="M18.269 14H20.2807V24H18.269V14Z" fill="black"/>
<path d="M9.21637 24C7.88303 23.9984 6.60475 23.4711 5.66193 22.5338C4.71911 21.5964 4.18873 20.3256 4.18713 19H6.19883C6.19883 19.5933 6.37581 20.1734 6.70738 20.6667C7.03895 21.1601 7.51023 21.5446 8.06161 21.7716C8.61299 21.9987 9.21972 22.0581 9.80507 21.9424C10.3904 21.8266 10.9281 21.5409 11.3501 21.1213C11.7721 20.7018 12.0595 20.1672 12.1759 19.5853C12.2924 19.0033 12.2326 18.4001 12.0042 17.8519C11.7758 17.3038 11.3891 16.8352 10.8928 16.5056C10.3966 16.1759 9.81319 16 9.21637 16V14C10.5502 14 11.8294 14.5268 12.7726 15.4645C13.7157 16.4021 14.2456 17.6739 14.2456 19C14.2456 20.3261 13.7157 21.5979 12.7726 22.5355C11.8294 23.4732 10.5502 24 9.21637 24Z" fill="black"/>
<path d="M26.3158 0H2.17544C1.64207 0.000529477 1.13069 0.211413 0.753542 0.586371C0.376392 0.961329 0.164275 1.46973 0.163742 2V26C0.164275 26.5303 0.376392 27.0387 0.753542 27.4136C1.13069 27.7886 1.64207 27.9995 2.17544 28H26.3158C26.8491 27.9992 27.3603 27.7882 27.7374 27.4133C28.1145 27.0384 28.3267 26.5302 28.3275 26V2C28.327 1.46973 28.1148 0.961329 27.7377 0.586371C27.3605 0.211413 26.8492 0.000529477 26.3158 0ZM26.3158 9H12.2339V2H26.3158V9ZM10.2222 2V9H2.17544V2H10.2222ZM2.17544 26V11H26.3158L26.3178 26H2.17544Z" fill="black"/>
</svg>
